<svg width="875" height="875" viewBox="0 0 875 875" fill="none" xmlns="http://www.w3.org/2000/svg">
<path d="M320.178 81.0255C288.647 80.5619 257.339 86.4266 228.115 98.2802C198.891 110.134 172.339 127.728 150.037 150.025C120.782 179.285 99.7392 215.728 89.0312 255.697C78.3229 295.661 78.3229 337.744 89.0312 377.713C99.7395 417.683 120.781 454.126 150.037 483.38C179.297 512.64 215.739 533.683 255.709 544.391C295.678 555.099 337.755 555.099 377.725 544.391C417.694 533.683 454.137 512.642 483.391 483.38C512.651 454.126 533.694 417.683 544.402 377.713C555.11 337.744 555.11 295.661 544.402 255.697C533.694 215.728 512.653 179.285 483.391 150.025C440.031 106.676 381.485 81.9215 320.178 81.0255ZM319.657 116.333C371.793 117.094 421.574 138.14 458.444 175.005C496.032 212.589 517.146 263.563 517.146 316.725C517.146 369.876 496.032 420.851 458.444 458.432C420.86 496.02 369.886 517.135 316.737 517.135C263.581 517.135 212.606 496.02 175.017 458.432C137.433 420.848 116.314 369.875 116.314 316.725C116.314 263.569 137.434 212.595 175.017 175.005C213.32 136.703 265.496 115.536 319.657 116.333Z" fill="black"/>
<path d="M462.564 462.556C472.992 452.129 491.871 454.103 500.324 462.556L670.911 633.143C681.338 643.57 681.338 660.476 670.911 670.903C660.484 681.33 641.604 679.356 633.151 670.903L462.564 500.316C452.137 489.889 452.137 472.983 462.564 462.556Z" fill="black"/>
<path d="M540.045 588.21L588.222 540.032C598.649 529.605 617.529 531.579 625.982 540.032L786.142 700.192C796.569 710.619 796.569 727.526 786.142 737.952L737.965 786.13C727.538 796.557 708.658 794.583 700.205 786.13L540.045 625.97C529.618 615.542 529.618 598.636 540.045 588.21Z" fill="black"/>
</svg>
