<svg width="875" height="875" viewBox="0 0 875 875" fill="none" xmlns="http://www.w3.org/2000/svg">
<g clip-path="url(#clip0_708_172)">
<path d="M382.826 786H493.18C493.18 626.551 526.961 577.262 562.72 525.047C597.077 474.894 632.608 423.035 632.608 295.948H631.823C632.344 289.927 632.596 285.552 632.596 285.552L632.727 241.019L720.392 275.624C723.333 276.791 726.7 275.839 728.586 273.325C729.539 272.063 730 270.59 730 269.094C730 267.58 729.521 266.09 728.551 264.821L596.138 92.7471C594.814 91.0175 592.753 90 590.567 90C588.381 90 586.333 91.0174 584.997 92.7471L452.595 264.836C450.66 267.35 450.654 270.827 452.565 273.341C454.464 275.86 457.818 276.806 460.747 275.639L548.418 241.034V303.061C547.268 398.615 523.416 433.706 493.336 477.617C474.235 505.506 453.894 535.245 437.998 579.473C422.089 535.245 401.76 505.506 382.659 477.617C352.579 433.706 328.728 398.622 327.578 303.061V241.034L415.249 275.639C418.184 276.806 421.538 275.854 423.431 273.341C425.335 270.821 425.329 267.338 423.401 264.836L290.999 92.7471C289.663 91.0175 287.614 90 285.428 90C283.242 90 281.188 91.0174 279.858 92.7471L147.45 264.836C146.479 266.105 146 267.601 146 269.109C146 270.606 146.467 272.078 147.414 273.341C149.312 275.86 152.673 276.806 155.608 275.639L243.273 241.034L243.404 285.567C243.404 285.567 243.65 289.954 244.177 295.963H243.392C243.392 423.052 278.917 474.916 313.28 525.063C349.05 577.262 382.831 626.554 382.831 786H382.826Z" fill="black"/>
</g>
<defs>
<clipPath id="clip0_708_172">
<rect width="875" height="875" fill="white"/>
</clipPath>
</defs>
</svg>
